<svg xmlns="http://www.w3.org/2000/svg" xmlns:xlink="http://www.w3.org/1999/xlink" width="1950.1567" height="1272.8806" viewBox="0 0 1950.1567 1272.8806"><defs><style>.cls-1{fill:#f5f5f7;}.cls-1,.cls-3,.cls-4,.cls-5,.cls-6,.cls-7{stroke:#f5f5f7;}.cls-1,.cls-7{stroke-miterlimit:10;}.cls-2,.cls-7{opacity:0.9;}.cls-3,.cls-4,.cls-5,.cls-6{stroke-linejoin:round;}.cls-3,.cls-4,.cls-5,.cls-6,.cls-7{stroke-width:12px;}.cls-3{fill:url(#linear-gradient);}.cls-4{fill:url(#linear-gradient-2);}.cls-5{fill:url(#linear-gradient-3);}.cls-6{fill:url(#linear-gradient-4);}.cls-7{fill:none;}</style><linearGradient id="linear-gradient" x1="-7.9025" y1="561.6091" x2="304.5555" y2="561.6091" gradientTransform="translate(1938.1672 1339.9053) rotate(180)" gradientUnits="userSpaceOnUse"><stop offset="0" stop-color="#fff"/><stop offset="1"/></linearGradient><linearGradient id="linear-gradient-2" x1="-7.9025" y1="851.1622" x2="304.5555" y2="851.1622" xlink:href="#linear-gradient"/><linearGradient id="linear-gradient-3" x1="-134.607" y1="561.6091" x2="177.851" y2="561.6091" gradientTransform="matrix(1, 0, 0, -1, 138.694, 1339.9053)" xlink:href="#linear-gradient"/><linearGradient id="linear-gradient-4" x1="-134.607" y1="851.1622" x2="177.851" y2="851.1622" gradientTransform="matrix(1, 0, 0, -1, 138.694, 1339.9053)" xlink:href="#linear-gradient"/></defs><title>mb_dark_3</title><g id="Layer_2" data-name="Layer 2"><g id="Layer_1-2" data-name="Layer 1"><path class="cls-1" d="M467.466,337.46h64.0132L751.4206,859.411h2.0517L973.4137,337.46h64.4234V929.5789H985.3136V442.5067H958.6418l62.7812-92.3262L776.8615,929.5789h-48.83L483.4694,350.1805l62.7817,92.3262H519.5793V929.5789H467.466Z"/><path class="cls-1" d="M1068.6564,337.46h55.8066V929.5789h-55.8066ZM1096.56,879.9276h174.3936q77.1416,0,115.9209-29.9541,38.7772-29.9488,38.7773-84.53v-.82q0-37.3345-18.876-63.1924-18.8789-25.8516-54.5751-39.187-35.6983-13.33-86.1709-13.3364H1096.56v-48.42h155.1084q68.1094,0,106.2774-29.1338,38.1621-29.1313,38.1611-81.6577v-.82q0-48.0094-33.8525-74.8872-33.8526-26.87-94.583-26.8769H1096.56V337.46h183.0108q52.1074,0,90.8906,18.26,38.7759,18.2629,60.3193,51.0869,21.5435,32.8338,21.543,76.7334v.8208a135.481,135.481,0,0,1-53.5488,108.74q-25.2363,19.292-58.4737,25.03v1.2314q41.8551,4.9233,74.0664,24.4151,32.2076,19.494,50.2666,50.6767,18.0513,31.1895,18.0547,72.22v.82q0,50.4728-23.5947,86.7872-23.6016,36.3148-68.9365,55.8056-45.3458,19.4941-111.4072,19.4912H1096.56Z"/><g class="cls-2"><line class="cls-3" x1="1946.0697" y1="632.9406" x2="1633.6117" y2="923.6519"/><line class="cls-4" x1="1946.0697" y1="634.0988" x2="1633.6117" y2="343.3875"/><line class="cls-5" x1="4.087" y1="632.9406" x2="316.545" y2="923.6519"/><line class="cls-6" x1="4.087" y1="634.0988" x2="316.545" y2="343.3875"/></g><line class="cls-7" x1="793.2932" y1="425.5955" x2="1234.857" y2="4.3413"/><line class="cls-7" x1="519.598" y1="1268.5199" x2="909.3072" y2="900.1972"/></g></g></svg>